<svg viewBox="0 0 96 96" xmlns="http://www.w3.org/2000/svg" xmlns:xlink="http://www.w3.org/1999/xlink" id="Icons_Telephone_M" overflow="hidden"><path d="M19.322 45.189C19.182 45.189 19.04 45.183 18.897 45.171 17.3776 45.0461 15.9993 44.2317 15.157 42.961L9.857 35.167C9.08348 34.0426 8.81318 32.6469 9.111 31.315 9.41544 29.9475 10.2684 28.7652 11.47 28.045 34.1145 14.6529 62.2545 14.6529 84.899 28.045L84.899 28.045C86.1003 28.7656 86.9531 29.9477 87.258 31.315 87.556 32.6478 87.2849 34.0444 86.51 35.169L81.21 42.969C79.7138 45.2432 76.6573 45.8738 74.3831 44.3776 74.0913 44.1856 73.8208 43.9632 73.576 43.714L68.676 38.814C67.6931 37.9165 67.1481 36.6366 67.182 35.306L67.182 30.928C54.8336 26.9124 41.5304 26.9124 29.182 30.928L29.182 35.305C29.1752 36.6251 28.6418 37.8879 27.7 38.813L22.8 43.713C21.8938 44.6635 20.6353 45.1976 19.322 45.189ZM48.19 20C35.6322 19.9872 23.3031 23.3595 12.5 29.762 11.7692 30.1954 11.2513 30.9129 11.07 31.743 10.8917 32.5382 11.053 33.3717 11.515 34.043L16.815 41.848C17.3206 42.6142 18.1501 43.1056 19.065 43.181 19.9233 43.2673 20.773 42.9503 21.365 42.323L26.285 37.401C26.8542 36.8521 27.1808 36.0987 27.192 35.308L27.192 29.482 27.876 29.254C41.0558 24.806 55.3312 24.806 68.511 29.254L69.194 29.482 69.194 35.305C69.1676 36.0805 69.4818 36.8288 70.054 37.353L75 42.3C76.1271 43.4611 77.9821 43.4887 79.1432 42.3616 79.3011 42.2083 79.4413 42.0377 79.561 41.853L84.861 34.042C85.3239 33.3711 85.4859 32.5375 85.308 31.742 85.1269 30.9107 84.6077 30.1925 83.875 29.76 73.0734 23.3586 60.746 19.987 48.19 20Z" fill="#2F5597"/><path d="M79.192 77.021 17.192 77.021 17.192 58.421C17.166 56.0242 18.0997 53.7165 19.785 52.012L31.189 40.6 31.189 36C31.189 33.7909 32.9799 32 35.189 32L36 32C38.2091 32 40 33.7909 40 36L40 39.011 56.188 39.011 56.188 36C56.188 33.7909 57.9789 32 60.188 32L61.188 32C63.3971 32 65.188 33.7909 65.188 36L65.188 40.6 76.6 51.905C78.2769 53.6164 79.2111 55.92 79.2 58.316ZM19.192 75.021 77.192 75.021 77.192 58.321C77.2058 56.4572 76.4848 54.6629 75.185 53.327L63.191 41.428 63.191 36C63.191 34.8954 62.2956 34 61.191 34L60.191 34C59.0864 34 58.191 34.8954 58.191 36L58.191 41.011 38 41.011 38 36C38 34.8954 37.1046 34 36 34L35.189 34C34.0844 34 33.189 34.8954 33.189 36L33.189 41.425 21.196 53.425C19.8771 54.7508 19.1528 56.5552 19.189 58.425Z" fill="#2F5597"/><path d="M56.191 50.013 56.191 50.013 56.191 50.013 56.191 50.013 56.191 50.013M58.191 48.013 54.191 48.013 54.191 52.013 58.191 52.013 58.191 48.013Z" fill="#2F5597"/><path d="M56.191 58.016 56.191 58.016M58.191 56.016 54.191 56.016 54.191 60.016 58.191 60.016 58.191 56.016Z" fill="#2F5597"/><path d="M56.191 66.018 56.191 66.018M58.191 64.018 54.191 64.018 54.191 68.018 58.191 68.018 58.191 64.018Z" fill="#2F5597"/><path d="M48.191 50.013 48.191 50.013 48.191 50.013 48.191 50.013 48.191 50.013M50.191 48.013 46.191 48.013 46.191 52.013 50.191 52.013 50.191 48.013Z" fill="#2F5597"/><path d="M48.191 58.016 48.191 58.016M50.191 56.016 46.191 56.016 46.191 60.016 50.191 60.016 50.191 56.016Z" fill="#2F5597"/><path d="M48.191 66.018 48.191 66.018M50.191 64.018 46.191 64.018 46.191 68.018 50.191 68.018 50.191 64.018Z" fill="#2F5597"/><path d="M40.19 50.013 40.19 50.013 40.19 50.013 40.19 50.013 40.19 50.013M42.19 48.013 38.19 48.013 38.19 52.013 42.19 52.013 42.19 48.013Z" fill="#2F5597"/><path d="M40.19 58.016 40.19 58.016M42.19 56.016 38.19 56.016 38.19 60.016 42.19 60.016 42.19 56.016Z" fill="#2F5597"/><path d="M40.19 66.018 40.19 66.018M42.19 64.018 38.19 64.018 38.19 68.018 42.19 68.018 42.19 64.018Z" fill="#2F5597"/></svg>