<svg viewBox="0 0 96 96" xmlns="http://www.w3.org/2000/svg" xmlns:xlink="http://www.w3.org/1999/xlink" id="Icons_Email_M" overflow="hidden"><g id="Icons"><path d="M73 25.776 73 16 61.493 16 48 4.7 34.507 16 23 16 23 25.776 10 36.529 10 90 86 90 86 36.529ZM73 28.376 83.516 37.076 73 47.586ZM48 7.305 58.378 16 37.622 16ZM25 18 71 18 71 49.586 58.948 61.638C52.6188 56.3138 43.3772 56.3138 37.048 61.638L25 49.586ZM23 28.372 23 47.586 12.484 37.07ZM12.017 39.431 35.586 63 12.017 86.569C12.0131 86.5729 12.0067 86.5728 12.0029 86.5689 12.0011 86.567 12 86.5646 12 86.562L12 39.438C12.0001 39.4325 12.0046 39.4281 12.0101 39.4281 12.0127 39.4282 12.0152 39.4292 12.017 39.431ZM13.438 88C13.4325 87.9999 13.4281 87.9954 13.4281 87.9899 13.4282 87.9873 13.4292 87.9848 13.431 87.983L37.394 64.021C43.2551 58.1722 52.7449 58.1722 58.606 64.021L82.569 87.983C82.5729 87.9869 82.5728 87.9933 82.5689 87.9971 82.567 87.9989 82.5646 88 82.562 88ZM83.983 86.569 60.414 63 83.983 39.431C83.9869 39.4271 83.9933 39.4272 83.9971 39.4311 83.9989 39.433 84 39.4354 84 39.438L84 86.562C83.9999 86.5675 83.9954 86.5719 83.9899 86.5719 83.9873 86.5718 83.9848 86.5708 83.983 86.569Z" fill="#2F5597"/><path d="M45.733 50.807C46.4836 50.935 47.2436 50.9995 48.005 51 50.0569 51.0021 52.0797 50.5142 53.905 49.577 54.4148 49.3646 54.6559 48.7791 54.4435 48.2693 54.2311 47.7595 53.6457 47.5184 53.1359 47.7308 53.0889 47.7504 53.0435 47.7735 53 47.8 47.5887 50.5614 40.9635 48.4132 38.2021 43.0019 35.4407 37.5906 37.5889 30.9654 43.0002 28.204 44.7767 27.2974 46.7663 26.8909 48.756 27.028 54.6117 27.5358 59.0817 32.4789 59 38.356L59 41C59 41.5523 58.5523 42 58 42L57.363 42C55.5062 41.9978 54.0017 40.4928 54 38.636L54 38C54.0117 34.6747 51.3254 31.9696 48.0001 31.9579 44.6749 31.9463 41.9697 34.6325 41.9581 37.9578 41.9464 41.2831 44.6327 43.9882 47.9579 43.9999 49.8944 44.0066 51.716 43.0816 52.853 41.514 53.8328 43.0589 55.5336 43.9964 57.363 44L58 44C59.6569 44 61 42.6569 61 41L61 38.356C61.0809 31.4251 55.7941 25.609 48.887 25.03 41.7265 24.5056 35.4966 29.8852 34.9722 37.0458 34.4835 43.7185 39.1393 49.6724 45.733 50.807ZM48 42C45.7909 42 44 40.2091 44 38 44 35.7909 45.7909 34 48 34 50.2091 34 52 35.7909 52 38 52 40.2091 50.2091 42 48 42Z" fill="#2F5597"/></g></svg>